<svg xmlns="http://www.w3.org/2000/svg" viewBox="0 0 78.83 79.83"><defs><style>.cls-1{fill:#fff;stroke:#fff;stroke-miterlimit:10;}</style></defs><title>github</title><g id="Layer_2" data-name="Layer 2"><g id="Layer_1-2" data-name="Layer 1"><path class="cls-1" d="M18.48,27.55c.54-2-.71-2.64-.67-5.67,0-2.11.06-4.24,1.34-5s2.88.13,4.66,1c3.3,1.62,3.41,2.84,5.34,3.67,2.78,1.19,3.47-1.07,10-1.33,2.86-.12,5-.21,7.46.79,1.22.49,1.58.87,2.54.87,2.15,0,2.69-2.14,5.66-3.33,1.59-.64,4.5-1.81,5.67-.67.65.64.35,1.59,0,5.34-.39,4.14-.39,4.32-.33,4.66.46,2.77,2.23,3.32,3.33,6,.88,2.14.66,4,.33,6.67-.46,3.89-1.31,11-6.33,14.33-4.41,2.93-9.66,1.34-10.33,3.67-.29,1,.62,1.38,1.46,3.83A18.53,18.53,0,0,1,49.23,70c-.28,4.17-1.31,5.82-.08,7.54a4.18,4.18,0,0,0,2,1.46c2.31.87,4.94-.49,7.87-2.5,4.11-2.81,7.29-5,10.5-9.29,3.63-4.86,10-15.78,8.67-28.67C76.48,22.42,63.62,1.72,41.48.55,20.28-.57,4.39,17,1.15,33.88-1.52,47.77,4.8,59.07,6.86,62.38c6.28,10.13,18.21,19.06,22.29,16.5,2.14-1.34,2.49-6.08.66-8-2.19-2.3-6.55,1-10-1.66-2.31-1.78-1.23-3.8-4.33-7.34-2.5-2.84-4.94-3.6-4.67-4.33s3.14-.75,5.3.46A8.81,8.81,0,0,1,18,59.51c2.24,2.11,2.35,3,3.5,4,2.52,2.22,7.08,2.3,8.33.67.45-.58.13-.91.8-2.59s1.39-2.19,1.2-2.75c-.33-1-2.71-.64-4.95-1.12-3.28-.71-5.34-3-7-4.88a22.38,22.38,0,0,1-4.66-17.33,14,14,0,0,1,1.33-4.67C17.45,29,18.1,28.94,18.48,27.55Z"/></g></g></svg>