<svg xmlns="http://www.w3.org/2000/svg" viewBox="0 0 129 129"><defs><style>.cls-1,.cls-2{fill:#fff;}.cls-1,.cls-3{stroke:#fff;stroke-miterlimit:10;stroke-width:2px;}.cls-3{fill:none;}</style></defs><title>linkdin</title><g id="Layer_2" data-name="Layer 2"><g id="Layer_1-2" data-name="Layer 1"><circle class="cls-1" cx="36.81" cy="32.81" r="6.75"/><rect class="cls-2" x="28.62" y="44.75" width="15.88" height="55.25"/><path class="cls-2" d="M52.5,44.63l16-.13c0,2.09.07,4.17.11,6.26v1.12a8.53,8.53,0,0,1,1.5-3.38c1.82-2.4,4.49-3,7.13-3.62a20.93,20.93,0,0,1,9.62,0,15.43,15.43,0,0,1,6.5,3,15.8,15.8,0,0,1,3.88,4.87c1.71,3.18,2.16,6.12,2.5,10a104.42,104.42,0,0,1,.5,12.75C100,81,99.82,89,100.25,100l-16,.13.12-33.63a7.22,7.22,0,0,0-2.12-4.12,7.84,7.84,0,0,0-5.88-1.88,8.4,8.4,0,0,0-7.5,4.88L68.5,100.5l-15.88-.25Z"/><circle class="cls-3" cx="64.5" cy="64.5" r="63.5"/></g></g></svg>